<svg id="Warstwa_1" data-name="Warstwa 1" xmlns="http://www.w3.org/2000/svg" width="188.37" height="54" viewBox="0 0 188.37 54"><defs><style>.cls-1{fill:#3adb76;}.cls-2{fill:#fff;}</style></defs><title>logo</title><path d="M68,31.73V40.5H61.91V14.27h9.25a15.26,15.26,0,0,1,4.76.66,9.14,9.14,0,0,1,3.28,1.81,7.06,7.06,0,0,1,1.9,2.72,9.22,9.22,0,0,1,.61,3.38,10,10,0,0,1-.63,3.6,7.22,7.22,0,0,1-1.93,2.81,9.08,9.08,0,0,1-3.28,1.83,15,15,0,0,1-4.71.66H68Zm0-4.59h3.17A4.46,4.46,0,0,0,74.58,26a4.5,4.5,0,0,0,1-3.17,4.73,4.73,0,0,0-.27-1.64,3.34,3.34,0,0,0-.82-1.27,3.68,3.68,0,0,0-1.39-.82,6.13,6.13,0,0,0-2-.29H68v8.32Z" transform="translate(-0.87 -0.5)"/><path d="M92.65,21.55a10.78,10.78,0,0,1,3.87.67,8.49,8.49,0,0,1,3,1.91,8.61,8.61,0,0,1,1.94,3,10.88,10.88,0,0,1,.69,4,11.07,11.07,0,0,1-.69,4,8.66,8.66,0,0,1-1.94,3,8.53,8.53,0,0,1-3,1.93,10.67,10.67,0,0,1-3.87.67,10.79,10.79,0,0,1-3.9-.67,8.7,8.7,0,0,1-3-1.93,8.52,8.52,0,0,1-2-3,11.07,11.07,0,0,1-.69-4,10.88,10.88,0,0,1,.69-4,8.47,8.47,0,0,1,2-3,8.66,8.66,0,0,1,3-1.91A10.91,10.91,0,0,1,92.65,21.55Zm0,15.1a3.17,3.17,0,0,0,2.83-1.36,7.52,7.52,0,0,0,.91-4.13A7.47,7.47,0,0,0,95.49,27a3.18,3.18,0,0,0-2.83-1.35A3.25,3.25,0,0,0,89.76,27a7.41,7.41,0,0,0-.92,4.12,7.45,7.45,0,0,0,.92,4.13A3.25,3.25,0,0,0,92.65,36.65Z" transform="translate(-0.87 -0.5)"/><path d="M103.06,21.83h4.46a1.89,1.89,0,0,1,1,.27,1.08,1.08,0,0,1,.52.7l1.87,8.37q0.22,1,.4,1.85t0.32,1.78q0.25-.88.53-1.77t0.55-1.86l2.34-8.39a1.2,1.2,0,0,1,.52-0.69,1.66,1.66,0,0,1,1-.28H119a1.81,1.81,0,0,1,1,.28,1.19,1.19,0,0,1,.53.69l2.23,8.39q0.25,1,.51,1.85t0.5,1.82q0.14-.9.35-1.79l0.44-1.88,2-8.37a1.08,1.08,0,0,1,.51-0.7,1.75,1.75,0,0,1,1-.27h4.25L126.53,40.5H122a0.91,0.91,0,0,1-.61-0.22,1.45,1.45,0,0,1-.4-0.72l-2.66-9.31Q118.14,29.63,118,29t-0.29-1.22c-0.08.42-.18,0.84-0.28,1.25s-0.22.83-.35,1.25l-2.7,9.27a1.15,1.15,0,0,1-1.19.94h-4.32Z" transform="translate(-0.87 -0.5)"/><path d="M142.48,21.55a9.62,9.62,0,0,1,3.39.58,7.38,7.38,0,0,1,2.65,1.67,7.65,7.65,0,0,1,1.73,2.69,9.87,9.87,0,0,1,.62,3.61,7.87,7.87,0,0,1-.05,1,1.63,1.63,0,0,1-.2.63,0.76,0.76,0,0,1-.39.32,1.8,1.8,0,0,1-.62.09H138.84a5.26,5.26,0,0,0,1.42,3.39,4.22,4.22,0,0,0,3,1.05,5.31,5.31,0,0,0,1.67-.23,8.35,8.35,0,0,0,1.25-.52l1-.52a2.09,2.09,0,0,1,1-.23,1.15,1.15,0,0,1,1,.49l1.62,2a8.27,8.27,0,0,1-1.86,1.61,9.65,9.65,0,0,1-2.05,1,11.13,11.13,0,0,1-2.11.49,15.66,15.66,0,0,1-2,.14,10.49,10.49,0,0,1-3.68-.64,8.46,8.46,0,0,1-3-1.9,9,9,0,0,1-2-3.13,11.7,11.7,0,0,1-.75-4.36,9.84,9.84,0,0,1,.64-3.55,8.62,8.62,0,0,1,4.73-4.93A9.57,9.57,0,0,1,142.48,21.55Zm0.11,3.85a3.36,3.36,0,0,0-2.5.91,4.73,4.73,0,0,0-1.19,2.62h7a5,5,0,0,0-.17-1.3,3.15,3.15,0,0,0-.56-1.12,2.84,2.84,0,0,0-1-.8A3.48,3.48,0,0,0,142.58,25.4Z" transform="translate(-0.87 -0.5)"/><path d="M154.07,40.5V21.83h3.31a2.86,2.86,0,0,1,.69.07,1.23,1.23,0,0,1,.47.23,1,1,0,0,1,.29.41,3.7,3.7,0,0,1,.17.61l0.31,1.75a9.13,9.13,0,0,1,2.3-2.5,4.68,4.68,0,0,1,2.79-.92,3.22,3.22,0,0,1,2.05.61l-0.72,4.1a0.8,0.8,0,0,1-.29.53,1,1,0,0,1-.58.15,3.8,3.8,0,0,1-.72-0.08,5.57,5.57,0,0,0-1-.08,3.83,3.83,0,0,0-3.46,2.34V40.5h-5.58Z" transform="translate(-0.87 -0.5)"/><path class="cls-1" d="M168.94,40.5V14.27h9.65a18.36,18.36,0,0,1,4.63.5,8.81,8.81,0,0,1,3.11,1.42,5.39,5.39,0,0,1,1.75,2.23,7.54,7.54,0,0,1,.55,2.93,5.75,5.75,0,0,1-.25,1.7,5,5,0,0,1-.79,1.54,5.9,5.9,0,0,1-1.39,1.31,8.94,8.94,0,0,1-2,1A7.22,7.22,0,0,1,188,29a5.29,5.29,0,0,1,1.24,3.63,7.51,7.51,0,0,1-.65,3.11,7.13,7.13,0,0,1-1.9,2.51,9,9,0,0,1-3.09,1.67,13.41,13.41,0,0,1-4.19.6H168.94ZM175,25.31h3.17a10.43,10.43,0,0,0,1.82-.14,3.79,3.79,0,0,0,1.38-.5,2.31,2.31,0,0,0,.86-1,3.71,3.71,0,0,0,.3-1.58,4.48,4.48,0,0,0-.23-1.56,2.24,2.24,0,0,0-.72-1,3,3,0,0,0-1.23-.54,8.44,8.44,0,0,0-1.77-.16H175v6.48Zm0,4.07v6.53h4.28a5.35,5.35,0,0,0,2-.31,3.11,3.11,0,0,0,1.2-.79,2.66,2.66,0,0,0,.59-1.1,4.81,4.81,0,0,0,.16-1.24,4.15,4.15,0,0,0-.19-1.3,2.15,2.15,0,0,0-.65-1,3.18,3.18,0,0,0-1.21-.61,7.1,7.1,0,0,0-1.91-.22H175Z" transform="translate(-0.87 -0.5)"/><polygon class="cls-1" points="23.38 0 46.77 13.5 46.77 40.5 23.38 54 0 40.5 0 13.5 23.38 0"/><path class="cls-2" d="M14.91,40.5V14.27h9.65a18.37,18.37,0,0,1,4.63.5A8.81,8.81,0,0,1,32.3,16.2a5.39,5.39,0,0,1,1.76,2.23,7.55,7.55,0,0,1,.55,2.93,5.75,5.75,0,0,1-.25,1.7,5,5,0,0,1-.79,1.54,5.92,5.92,0,0,1-1.39,1.31,8.93,8.93,0,0,1-2,1A7.23,7.23,0,0,1,34,29a5.29,5.29,0,0,1,1.24,3.63,7.5,7.5,0,0,1-.65,3.11,7.13,7.13,0,0,1-1.9,2.51,9,9,0,0,1-3.09,1.67,13.44,13.44,0,0,1-4.19.6H14.91ZM21,25.31h3.17A10.42,10.42,0,0,0,26,25.16a3.78,3.78,0,0,0,1.38-.5,2.32,2.32,0,0,0,.86-1,3.72,3.72,0,0,0,.3-1.58,4.46,4.46,0,0,0-.23-1.56,2.24,2.24,0,0,0-.72-1A3,3,0,0,0,26.33,19a8.44,8.44,0,0,0-1.77-.16H21v6.48Zm0,4.07v6.53h4.28a5.35,5.35,0,0,0,2-.31,3.1,3.1,0,0,0,1.2-.79,2.66,2.66,0,0,0,.59-1.1,4.83,4.83,0,0,0,.16-1.24,4.15,4.15,0,0,0-.19-1.3,2.15,2.15,0,0,0-.65-1,3.18,3.18,0,0,0-1.22-.61,7.1,7.1,0,0,0-1.91-.22H21Z" transform="translate(-0.87 -0.5)"/></svg>